<svg width="520" height="300" viewBox="0 0 520 300" fill="none" xmlns="http://www.w3.org/2000/svg">
  <!-- merrymen — autonomous trading agents for Robinhood Chain. Generated by scripts/pwa-icons.mjs from site/public/favicon.svg. -->
  <rect width="520" height="300" rx="24" fill="#070806"/>
  <g transform="translate(260 99) scale(0.20701) translate(-470 -315)" fill="#a5ce1f"><rect x="280" y="1" width="324" height="47" rx="23.5" />
    <rect x="403" y="72" width="258" height="49" rx="24.5" />
    <rect x="138" y="137" width="51" height="54" rx="25.5" />
    <rect x="473" y="137" width="227" height="54" rx="27" />
    <rect x="742" y="137" width="50" height="54" rx="25" />
    <rect x="64" y="212" width="199" height="48" rx="24" />
    <rect x="516" y="212" width="204" height="48" rx="24" />
    <rect x="766" y="212" width="109" height="48" rx="24" />
    <rect x="0" y="288" width="126" height="48" rx="24" />
    <rect x="161" y="288" width="582" height="48" rx="24" />
    <rect x="812" y="288" width="128" height="48" rx="24" />
    <rect x="64" y="366" width="199" height="47" rx="23.5" />
    <rect x="518" y="366" width="202" height="47" rx="23.5" />
    <rect x="766" y="366" width="109" height="47" rx="23.5" />
    <rect x="138" y="436" width="51" height="48" rx="24" />
    <rect x="473" y="436" width="227" height="48" rx="24" />
    <rect x="742" y="436" width="51" height="48" rx="24" />
    <rect x="403" y="510" width="259" height="48" rx="24" />
    <rect x="280" y="582" width="324" height="47" rx="23.5" />
  </g>
  <text x="260" y="228" text-anchor="middle" font-family="Segoe UI, Helvetica, Arial, sans-serif" font-size="52" font-weight="700" letter-spacing="1" fill="#f5faee">merrymen</text>
  <text x="260" y="262" text-anchor="middle" font-family="Segoe UI, Helvetica, Arial, sans-serif" font-size="15" font-weight="600" letter-spacing="3" fill="#9ca3af">— AUTONOMOUS TRADING AGENTS —</text>
  <text x="260" y="284" text-anchor="middle" font-family="Segoe UI, Helvetica, Arial, sans-serif" font-size="14" font-weight="600" letter-spacing="3" fill="#a5ce1f">FOR ROBINHOOD CHAIN</text>
</svg>
